{
  "accessors": [
    {
      "bufferView": 2,
      "componentType": 5126,
      "count": 2817,
      "max": [
        203.18003845214844,
        621.34515380859375,
        123.97582244873047
      ],
      "min": [
        -191.29002380371094,
        -146.24317932128906,
        -279.16604614257812
      ],
      "type": "VEC3"
    },
    {
      "bufferView": 2,
      "byteOffset": 33804,
      "componentType": 5126,
      "count": 2817,
      "max": [
        0.99988740682601929,
        0.99854367971420288,
        0.99936586618423462
      ],
      "min": [
        -0.99997210502624512,
        -0.99978023767471313,
        -0.99921137094497681
      ],
      "type": "VEC3"
    },
    {
      "bufferView": 3,
      "componentType": 5126,
      "count": 2817,
      "max": [
        0.99918323755264282,
        0.99994790554046631,
        0.99959772825241089,
        1
      ],
      "min": [
        -0.99953961372375488,
        -0.99927663803100586,
        -0.99989926815032959,
        -1
      ],
      "type": "VEC4"
    },
    {
      "bufferView": 1,
      "componentType": 5126,
      "count": 2817,
      "max": [
        0.98403823375701904,
        0.99602574110031128
      ],
      "min": [
        0.0039742328226566315,
        0.0039743185043334961
      ],
      "type": "VEC2"
    },
    {
      "bufferView": 1,
      "byteOffset": 22536,
      "componentType": 5126,
      "count": 2817,
      "max": [
        0.98403823375701904,
        0.99602574110031128
      ],
      "min": [
        0.0039742328226566315,
        0.0039743185043334961
      ],
      "type": "VEC2"
    },
    {
      "bufferView": 1,
      "byteOffset": 45072,
      "componentType": 5126,
      "count": 2817,
      "max": [
        0.98403823375701904,
        0.99602574110031128
      ],
      "min": [
        0.0039742328226566315,
        0.0039743185043334961
      ],
      "type": "VEC2"
    },
    {
      "bufferView": 0,
      "componentType": 5125,
      "count": 12288,
      "max": [
        2816
      ],
      "min": [
        0
      ],
      "type": "SCALAR"
    },
    {
      "bufferView": 2,
      "byteOffset": 67608,
      "componentType": 5126,
      "count": 736,
      "max": [
        260.01885986328125,
        198.95794677734375,
        195.85838317871094
      ],
      "min": [
        -260.01885986328125,
        -198.95794677734375,
        -195.85838317871094
      ],
      "type": "VEC3"
    },
    {
      "bufferView": 2,
      "byteOffset": 76440,
      "componentType": 5126,
      "count": 736,
      "max": [
        0.96127241849899292,
        0.9853399395942688,
        0.986378014087677
      ],
      "min": [
        -0.96127241849899292,
        -0.9853399395942688,
        -0.986378014087677
      ],
      "type": "VEC3"
    },
    {
      "bufferView": 3,
      "byteOffset": 45072,
      "componentType": 5126,
      "count": 736,
      "max": [
        0.93808186054229736,
        0.64288806915283203,
        0.96979188919067383,
        1
      ],
      "min": [
        -0.97416836023330688,
        -0.62802422046661377,
        -0.98870277404785156,
        -1
      ],
      "type": "VEC4"
    },
    {
      "bufferView": 3,
      "byteOffset": 56848,
      "componentType": 5126,
      "count": 736,
      "max": [
        0,
        0.87058824300765991,
        0,
        0
      ],
      "min": [
        0,
        0.043137256056070328,
        0,
        0
      ],
      "type": "VEC4"
    },
    {
      "bufferView": 1,
      "byteOffset": 67608,
      "componentType": 5126,
      "count": 736,
      "max": [
        1,
        1
      ],
      "min": [
        0,
        0
      ],
      "type": "VEC2"
    },
    {
      "bufferView": 1,
      "byteOffset": 73496,
      "componentType": 5126,
      "count": 736,
      "max": [
        1,
        1
      ],
      "min": [
        0,
        0
      ],
      "type": "VEC2"
    },
    {
      "bufferView": 1,
      "byteOffset": 79384,
      "componentType": 5126,
      "count": 736,
      "max": [
        1,
        1
      ],
      "min": [
        0,
        0
      ],
      "type": "VEC2"
    },
    {
      "bufferView": 0,
      "byteOffset": 49152,
      "componentType": 5125,
      "count": 1104,
      "max": [
        735
      ],
      "min": [
        0
      ],
      "type": "SCALAR"
    }
  ],
  "asset": {
    "extras": {
      "author": "3DMaesen (https://sketchfab.com/bumstrum)",
      "license": "CC-BY-4.0 (http://creativecommons.org/licenses/by/4.0/)",
      "source": "https://sketchfab.com/3d-models/tree-89f6d58d90264ae09fd9e16c53b77d40",
      "title": "Tree"
    },
    "generator": "Sketchfab-5.13.0",
    "version": "2.0"
  },
  "bufferViews": [
    {
      "buffer": 0,
      "byteLength": 53568,
      "byteOffset": 0,
      "name": "floatBufferViews",
      "target": 34963
    },
    {
      "buffer": 0,
      "byteLength": 85272,
      "byteOffset": 53568,
      "byteStride": 8,
      "name": "floatBufferViews",
      "target": 34962
    },
    {
      "buffer": 0,
      "byteLength": 85272,
      "byteOffset": 138840,
      "byteStride": 12,
      "name": "floatBufferViews",
      "target": 34962
    },
    {
      "buffer": 0,
      "byteLength": 68624,
      "byteOffset": 224112,
      "byteStride": 16,
      "name": "floatBufferViews",
      "target": 34962
    }
  ],
  "buffers": [
    {
      "byteLength": 292736,
      "uri": "scene.bin"
    }
  ],
  "extensionsRequired": [
    "KHR_materials_pbrSpecularGlossiness"
  ],
  "extensionsUsed": [
    "KHR_materials_pbrSpecularGlossiness"
  ],
  "images": [
    {
      "uri": "textures/branches_diffuse.png"
    },
    {
      "uri": "textures/branches_normal.png"
    },
    {
      "uri": "textures/branches_specularGlossiness.png"
    },
    {
      "uri": "textures/tree1_normal.png"
    },
    {
      "uri": "textures/tree1_diffuse.png"
    },
    {
      "uri": "textures/tree1_specularGlossiness.png"
    }
  ],
  "materials": [
    {
      "doubleSided": false,
      "extensions": {
        "KHR_materials_pbrSpecularGlossiness": {
          "diffuseFactor": [
            1,
            1,
            1,
            1
          ],
          "diffuseTexture": {
            "index": 4,
            "texCoord": 0
          },
          "glossinessFactor": 1,
          "specularFactor": [
            1,
            1,
            1
          ],
          "specularGlossinessTexture": {
            "index": 5,
            "texCoord": 0
          }
        }
      },
      "name": "tree1",
      "normalTexture": {
        "index": 3,
        "scale": 1,
        "texCoord": 0
      }
    },
    {
      "alphaCutoff": 0.61147103660000002,
      "alphaMode": "MASK",
      "doubleSided": false,
      "extensions": {
        "KHR_materials_pbrSpecularGlossiness": {
          "diffuseFactor": [
            1,
            1,
            1,
            1
          ],
          "diffuseTexture": {
            "index": 0,
            "texCoord": 0
          },
          "glossinessFactor": 1,
          "specularFactor": [
            1,
            1,
            1
          ],
          "specularGlossinessTexture": {
            "index": 2,
            "texCoord": 0
          }
        }
      },
      "name": "branches",
      "normalTexture": {
        "index": 1,
        "scale": 1,
        "texCoord": 0
      }
    }
  ],
  "meshes": [
    {
      "name": "tree1_tree1_0",
      "primitives": [
        {
          "attributes": {
            "NORMAL": 1,
            "POSITION": 0,
            "TANGENT": 2,
            "TEXCOORD_0": 3,
            "TEXCOORD_1": 4,
            "TEXCOORD_2": 5
          },
          "indices": 6,
          "material": 0,
          "mode": 4
        }
      ]
    },
    {
      "name": "leaves_branches_0",
      "primitives": [
        {
          "attributes": {
            "COLOR_0": 10,
            "NORMAL": 8,
            "POSITION": 7,
            "TANGENT": 9,
            "TEXCOORD_0": 11,
            "TEXCOORD_1": 12,
            "TEXCOORD_2": 13
          },
          "indices": 14,
          "material": 1,
          "mode": 4
        }
      ]
    }
  ],
  "nodes": [
    {
      "children": [
        1
      ],
      "name": "RootNode (gltf orientation matrix)",
      "rotation": [
        -0.70710678118654746,
        -0,
        -0,
        0.70710678118654757
      ]
    },
    {
      "children": [
        2
      ],
      "name": "RootNode (model correction matrix)"
    },
    {
      "children": [
        3
      ],
      "matrix": [
        1,
        0,
        0,
        0,
        0,
        0,
        1,
        0,
        0,
        -1,
        0,
        0,
        0,
        0,
        0,
        1
      ],
      "name": "7c15d355b2d44bd7a252a8cb70920228.fbx"
    },
    {
      "children": [
        4
      ],
      "name": "RootNode"
    },
    {
      "children": [
        5,
        6
      ],
      "matrix": [
        1,
        0,
        0,
        0,
        0,
        1,
        0,
        0,
        0,
        0,
        1,
        0,
        0,
        10.40366268157959,
        0.047565709799528122,
        1
      ],
      "name": "tree1"
    },
    {
      "mesh": 0,
      "name": "tree1_tree1_0"
    },
    {
      "children": [
        7
      ],
      "matrix": [
        1,
        0,
        0,
        0,
        0,
        1,
        0,
        0,
        0,
        0,
        1,
        0,
        -1.3580043315887451,
        471.1151123046875,
        -157.00352478027344,
        1
      ],
      "name": "leaves"
    },
    {
      "mesh": 1,
      "name": "leaves_branches_0"
    }
  ],
  "samplers": [
    {
      "magFilter": 9729,
      "minFilter": 9987,
      "wrapS": 10497,
      "wrapT": 10497
    }
  ],
  "scene": 0,
  "scenes": [
    {
      "name": "OSG_Scene",
      "nodes": [
        0
      ]
    }
  ],
  "textures": [
    {
      "sampler": 0,
      "source": 0
    },
    {
      "sampler": 0,
      "source": 1
    },
    {
      "sampler": 0,
      "source": 2
    },
    {
      "sampler": 0,
      "source": 3
    },
    {
      "sampler": 0,
      "source": 4
    },
    {
      "sampler": 0,
      "source": 5
    }
  ]
}

